<svg xmlns="http://www.w3.org/2000/svg" data-name="Camada 1" viewBox="0 0 100 125" x="0px" y="0px"><title>Sloth</title><path d="M54.48773,72.799a12.544,12.544,0,0,0,1.062-.66852,16.62537,16.62537,0,0,0,5.52979-6.47973,7.74655,7.74655,0,0,0-.1-6.65973c-1.12994-2.0799-3.24988-3.44983-6.29968-4.07978A21.84878,21.84878,0,0,0,50,54.53119a21.84878,21.84878,0,0,0-4.67981.38c-3.04987.63-5.1698,1.99988-6.29974,4.07978a7.747,7.747,0,0,0-.1,6.65973,16.62537,16.62537,0,0,0,5.52979,6.47973,12.506,12.506,0,0,0,1.07214.67432,13.65844,13.65844,0,0,1-8.22077,1.42151L36.58289,80.183a21.876,21.876,0,0,0,2.61413.15918A19.00768,19.00768,0,0,0,50.00043,77.0799a19.00636,19.00636,0,0,0,10.80212,3.26232,21.8651,21.8651,0,0,0,2.6142-.15918L62.698,74.22626A13.73629,13.73629,0,0,1,54.48773,72.799ZM52.06989,67.2406a5.041,5.041,0,0,1-2.06989.9,5.04126,5.04126,0,0,1-2.06995-.9,10.86982,10.86982,0,0,1-3.50988-3.96979,1.84114,1.84114,0,0,1-.11-1.42993,3.371,3.371,0,0,1,2.21-1.04993,15.81245,15.81245,0,0,1,2.97986-.26h.99994a15.812,15.812,0,0,1,2.97986.26,3.37081,3.37081,0,0,1,2.21,1.04993,1.84061,1.84061,0,0,1-.11,1.42993A10.86991,10.86991,0,0,1,52.06989,67.2406Z"/><path d="M50.99957,2.5H49.00043C21.98157,2.5,0,24.93,0,52.5,0,65.83,5.0274,77.24,14.52374,85.52,23.40259,93.24,35.64288,97.5,49.00043,97.5h1.99914c13.35749,0,25.59778-4.26,34.47669-11.98C94.97253,77.24,100,65.83,100,52.5,100,24.93,78.01837,2.5,50.99957,2.5Zm0,89H49.00043c-19.43274,0-34.3736-9.40833-40.31543-24.11932,1.88586-1.46112,4.267-2.81263,5.10364-3.41516,5.28149-3.80353,11.55731-6.13416,17.573-8.46644,3.04126-1.17907,6.32221-3.31207,5.67206-7.06567-.6225-3.59357-3.49475-5.603-6.75641-6.26654a12.814,12.814,0,0,0-5.233.043c-6.51575,1.43689-11.39813,7.35577-15.8587,11.88055-.56769.57587-1.85443,1.71027-3.05506,2.99512A42.75,42.75,0,0,1,5.88,52.5v-.14C5.94867,31.49,31.84045,30.49,50,30.8c18.15948-.31,44.05133.69,44.11993,21.56v.14a42.74739,42.74739,0,0,1-.25055,4.58551c-1.20068-1.28485-2.48736-2.41925-3.05505-2.99512-4.46057-4.52478-9.343-10.44366-15.8587-11.88055a12.81367,12.81367,0,0,0-5.23291-.043c-3.26172.66351-6.134,2.673-6.75641,6.26654-.65015,3.7536,2.63074,5.8866,5.672,7.06567,6.01568,2.33228,12.29156,4.66291,17.573,8.46644.83661.60253,3.21778,1.954,5.10364,3.41516C85.37311,82.09167,70.43225,91.5,50.99957,91.5Z"/><text x="0" y="115" fill="#000000" font-size="5px" font-weight="bold" font-family="'Helvetica Neue', Helvetica, Arial-Unicode, Arial, Sans-serif">Created by Luiz Carvalho</text><text x="0" y="120" fill="#000000" font-size="5px" font-weight="bold" font-family="'Helvetica Neue', Helvetica, Arial-Unicode, Arial, Sans-serif">from the Noun Project</text></svg>